HIERARCHY
ROOT Hips
{
    OFFSET 0.000000 0.000000 0.000000
    CHANNELS 6 Xposition Yposition Zposition Zrotation Xrotation Yrotation
    JOINT Spine
    {
        OFFSET -0.000000 0.081343 0.000000
        CHANNELS 3 Zrotation Xrotation Yrotation
        JOINT Spine1
        {
            OFFSET -0.000000 0.243280 0.000000
            CHANNELS 3 Zrotation Xrotation Yrotation
            JOINT Neck
            {
                OFFSET -0.000000 0.242281 0.022026
                CHANNELS 3 Zrotation Xrotation Yrotation
                JOINT Head
                {
                    OFFSET -0.000000 0.149025 -0.021289
                    CHANNELS 3 Zrotation Xrotation Yrotation
                    End Site
                    {
                        OFFSET -0.000000 0.198396 0.000000
                    }
                }
            }
            JOINT LeftShoulder
            {
                OFFSET 0.039707 0.224479 -0.002125
                CHANNELS 3 Zrotation Xrotation Yrotation
                JOINT LeftArm
                {
                    OFFSET 0.116942 0.000000 0.000000
                    CHANNELS 3 Zrotation Xrotation Yrotation
                    JOINT LeftForeArm
                    {
                        OFFSET 0.282002 0.000000 0.000000
                        CHANNELS 3 Zrotation Xrotation Yrotation
                        JOINT LeftHand
                        {
                            OFFSET 0.358743 0.000000 0.000000
                            CHANNELS 3 Zrotation Xrotation Yrotation
                            End Site
                            {
                                OFFSET 0.148797 0.000000 0.000000
                            }
                        }
                    }
                }
            }
            JOINT RightShoulder
            {
                OFFSET -0.039404 0.224479 -0.002125
                CHANNELS 3 Zrotation Xrotation Yrotation
                JOINT RightArm
                {
                    OFFSET -0.116942 0.000000 0.000000
                    CHANNELS 3 Zrotation Xrotation Yrotation
                    JOINT RightForeArm
                    {
                        OFFSET -0.282002 0.000000 0.000000
                        CHANNELS 3 Zrotation Xrotation Yrotation
                        JOINT RightHand
                        {
                            OFFSET -0.358743 0.000000 0.000000
                            CHANNELS 3 Zrotation Xrotation Yrotation
                            End Site
                            {
                                OFFSET -0.148797 0.000000 0.000000
                            }
                        }
                    }
                }
            }
        }
    }
    JOINT LeftUpLeg
    {
        OFFSET 0.099198 0.000000 0.000000
        CHANNELS 3 Zrotation Xrotation Yrotation
        JOINT LeftLeg
        {
            OFFSET -0.000000 -0.332973 0.000000
            CHANNELS 3 Zrotation Xrotation Yrotation
            JOINT LeftFoot
            {
                OFFSET -0.000000 -0.491254 0.000000
                CHANNELS 3 Zrotation Xrotation Yrotation
                JOINT LeftToeBase
                {
                    OFFSET -0.000000 -0.064479 0.148797
                    CHANNELS 3 Zrotation Xrotation Yrotation
                    End Site
                    {
                        OFFSET -0.000000 0.000000 0.039679
                    }
                }
            }
        }
    }
    JOINT RightUpLeg
    {
        OFFSET -0.099198 0.000000 0.000000
        CHANNELS 3 Zrotation Xrotation Yrotation
        JOINT RightLeg
        {
            OFFSET -0.000000 -0.332973 0.000000
            CHANNELS 3 Zrotation Xrotation Yrotation
            JOINT RightFoot
            {
                OFFSET -0.000000 -0.491254 0.000000
                CHANNELS 3 Zrotation Xrotation Yrotation
                JOINT RightToeBase
                {
                    OFFSET -0.000000 -0.064479 0.148797
                    CHANNELS 3 Zrotation Xrotation Yrotation
                    End Site
                    {
                        OFFSET -0.000000 0.000000 0.039679
                    }
                }
            }
        }
    }
}
MOTION
Frames:    10
Frame Time:    0.010000
-0.265495    0.857634    0.235053    -4.418666    -1.472950    -51.383072    1.981216    0.227510    -8.579359    -3.947011    15.264608    -2.329339    10.360016    10.906521    18.249142    -9.862900    -17.295229    15.660462    -5.448514    22.215454    -10.493608    -13.551978    17.615719    -48.887016    44.767780    14.115315    -55.735619    59.519711    22.452372    -28.196463    6.369147    25.005859    9.913431    37.227402    32.980854    23.774937    -11.732327    -1.196366    44.889736    1.035102    3.746654    8.767550    28.275942    -16.844858    16.536509    -19.458544    36.644783    8.231222    0.756382    -10.229294    19.555206    0.000000    0.000000    0.000000    -7.051443    -14.359939    -10.448402    1.867569    35.953648    -2.961181    5.383597    -13.363575    -4.796867    0.000000    0.000000    0.000000    
-0.266513    0.858056    0.234635    -4.323532    -1.581856    -51.307648    1.973665    0.153688    -8.538964    -3.855887    15.407880    -2.323593    10.077655    10.884980    17.966949    -9.710153    -17.445473    15.408678    -6.321468    23.253553    -10.264365    -11.965918    17.031029    -49.635910    44.760807    13.997920    -55.555470    59.353203    22.429775    -27.963388    6.290739    24.819233    9.702863    37.510815    33.032261    23.341385    -11.352720    -1.544923    44.850872    -0.385780    3.127272    8.677749    27.991262    -17.050802    18.332481    -18.001122    37.091537    5.906528    -0.229666    -10.386511    18.641262    0.000000    0.000000    0.000000    -7.092559    -14.317000    -10.297463    1.921977    35.941208    -3.164630    5.363954    -13.366169    -4.820197    0.000000    0.000000    0.000000    
-0.267597    0.858466    0.234053    -4.234910    -1.606115    -51.329025    2.006306    0.266409    -8.594782    -3.817344    15.163587    -2.355177    9.450875    10.151137    17.858017    -8.285005    -16.458168    15.738553    -6.521437    23.451973    -10.094337    -12.012004    17.002548    -49.905445    44.628239    14.097242    -55.837669    59.211994    22.686333    -27.869053    6.173090    24.819883    9.650944    37.684753    33.122669    22.983023    -11.776519    -1.024743    44.674290    0.577677    3.876152    8.919339    27.842842    -16.947119    18.264647    -18.123995    36.517666    5.314597    -0.754515    -10.792938    18.743240    0.000000    0.000000    0.000000    -6.990423    -14.337191    -9.991670    1.967129    35.892212    -3.311116    5.271605    -13.358156    -5.001733    0.000000    0.000000    0.000000    
-0.268339    0.859080    0.235457    -4.109056    -2.024715    -51.014523    1.985681    0.193793    -8.752570    -4.126776    15.410459    -2.357835    10.137663    10.596025    17.787052    -9.795767    -17.008278    15.202345    -6.230884    23.783848    -10.452702    -11.970133    17.082670    -50.186787    44.842834    14.015821    -55.720451    59.157986    22.780170    -27.717712    6.204277    24.675119    9.546000    37.884884    33.295292    22.520136    -11.919157    -1.082876    44.523590    0.558426    3.858236    9.071342    26.827583    -16.828102    17.708330    -17.770630    35.857445    4.971963    -1.744839    -10.994280    18.742014    0.000000    0.000000    0.000000    -7.601348    -13.886847    -10.331858    2.138937    35.761162    -3.127172    5.186386    -13.518245    -5.172044    0.000000    0.000000    0.000000    
-0.269100    0.859424    0.235399    -4.006306    -2.058403    -50.927246    2.080823    0.201428    -8.822501    -4.232181    15.315295    -2.370370    10.155774    10.386154    17.694986    -9.710315    -16.723780    15.132944    -6.459544    23.653332    -10.397152    -11.861495    17.326401    -50.295975    44.887016    14.108380    -56.020569    59.052715    22.988537    -27.880276    6.153481    24.578075    9.534404    38.084774    33.500122    22.096289    -12.362765    -0.761669    44.322124    1.114457    4.383787    9.386453    26.442217    -16.899555    17.524776    -17.662376    35.332153    5.077013    -2.613527    -11.193340    18.609497    0.000000    0.000000    0.000000    -7.630616    -13.835814    -10.253333    2.195298    35.667118    -3.172444    5.130573    -13.547228    -5.339200    0.000000    0.000000    0.000000    
-0.269884    0.859731    0.235278    -3.924480    -2.035727    -50.886906    2.158544    0.121957    -8.744148    -4.187837    15.357728    -2.348998    10.059451    10.398098    17.465450    -9.674012    -16.895382    14.895507    -6.380516    23.598751    -10.698084    -11.950500    17.586647    -50.345882    44.869331    14.010481    -56.158356    59.001892    23.088932    -27.671568    6.124684    24.427355    9.409979    38.251862    33.655777    21.670454    -12.404729    -0.795811    44.221752    1.010952    4.346789    9.494786    26.141552    -16.996374    17.492785    -17.508389    34.899197    5.295676    -3.320361    -11.403898    18.363688    0.000000    0.000000    0.000000    -7.445172    -13.819727    -10.683334    1.570249    35.548855    -2.929096    5.284273    -13.511421    -4.957818    0.000000    0.000000    0.000000    
-0.270609    0.860012    0.235317    -3.853539    -2.012474    -50.856609    2.255024    0.077817    -8.722071    -4.212443    15.339541    -2.339183    10.057251    10.230109    17.352108    -9.603418    -16.720232    14.795651    -6.281811    24.030916    -10.713397    -11.830850    17.419254    -50.751236    45.033699    14.082881    -56.187492    58.907238    23.304893    -27.663879    6.088085    24.339783    9.412107    38.357426    33.764225    21.250715    -12.093220    -1.140880    44.230934    0.070827    3.797739    9.281753    25.794750    -17.009756    16.886158    -17.694672    34.196461    6.123214    -3.565966    -11.603486    18.227400    0.000000    0.000000    0.000000    -7.400857    -13.778953    -10.714848    1.504792    35.435467    -2.895290    5.272714    -13.515349    -4.978844    0.000000    0.000000    0.000000    
-0.271320    0.860250    0.235368    -3.806272    -1.966079    -50.876289    2.422161    0.098811    -8.709700    -4.444902    15.190351    -2.309420    10.313060    10.382787    17.217031    -9.746750    -16.922302    14.597631    -6.045807    24.132881    -10.690521    -11.761651    17.739630    -51.173843    45.151653    14.028026    -56.006641    58.840347    23.236526    -27.690195    6.178359    24.323757    9.466060    38.330879    34.179455    20.888399    -12.666704    -1.013940    44.060047    0.758444    4.195777    9.598968    25.460966    -16.865078    15.181225    -18.619249    32.960232    8.306464    -3.611427    -11.845001    18.182037    0.000000    0.000000    0.000000    -7.445345    -13.746700    -10.209586    2.036592    35.348057    -3.283233    5.143408    -13.540567    -5.290606    0.000000    0.000000    0.000000    
-0.271965    0.859910    0.233864    -3.768755    -1.396709    -51.021923    2.704802    -0.092593    -8.515803    -4.029650    15.069340    -2.305825    9.695449    9.700877    17.070745    -8.681032    -16.167072    14.773595    -6.235040    24.117500    -10.703593    -11.704770    17.720741    -51.196369    45.088932    14.045850    -56.479660    58.773186    23.527664    -27.604511    5.915277    24.258783    9.480911    38.478363    34.308804    20.566454    -12.776744    -1.063980    44.055607    0.718308    4.187215    9.637431    25.914034    -17.281796    15.351384    -18.804688    32.756935    9.121387    -3.606293    -12.133801    17.860441    0.000000    0.000000    0.000000    -6.738235    -14.246977    -10.041982    1.786163    35.360497    -3.432540    5.176305    -13.398252    -5.177867    0.000000    0.000000    0.000000    
-0.272650    0.860056    0.234280    -3.782119    -1.448725    -51.122047    2.723045    -0.061413    -8.355042    -3.981589    15.140178    -2.255877    9.925645    9.352242    16.998194    -8.908730    -15.622106    14.630316    -6.262069    23.825584    -10.904203    -11.617797    18.169641    -51.185635    45.179348    13.973441    -56.577106    58.578049    23.693342    -27.478964    5.882726    24.155699    9.485159    38.477638    34.525490    20.233685    -11.793301    -2.301139    44.228718    -1.413887    2.399974    8.860975    25.455462    -17.255436    15.004871    -18.643908    32.336872    9.605729    -3.527034    -12.142245    17.948528    0.000000    0.000000    0.000000    -6.635540    -14.156910    -10.631763    1.081104    35.318554    -3.067654    5.429232    -13.366024    -4.550378    0.000000    0.000000    0.000000    
